<svg id="logo" xmlns="http://www.w3.org/2000/svg" viewBox="0 0 862 175"><defs><style>.cls-1{fill:#f05f30;}.cls-1,.cls-2{fill-rule:evenodd;}.cls-2{fill:none;stroke:#f05f30;stroke-linecap:round;stroke-miterlimit:10;stroke-width:7px;}.cls-3{fill:#000222;}</style></defs><title>logo</title><g id="Shop"><path class="cls-1" d="M532.15,69.64q-8.48-10.23-23.79-13.14-12.66-2.34-18.14-8.41A20.93,20.93,0,0,1,486,40.52a23.36,23.36,0,0,1-.92-8.65A20.55,20.55,0,0,1,492.8,17,22.42,22.42,0,0,1,509,11.65q8.82.58,15.06,7.9c1.28,1.56,2.36,2.94,3.25,4.16a4,4,0,0,0,3.41,1.34A5.1,5.1,0,0,0,535.81,20a5.48,5.48,0,0,0-.74-2.83,32.5,32.5,0,0,0-3.17-4.41Q521.25,1.16,507.28,1.17A31.35,31.35,0,0,0,486.14,9q-11.24,9.48-11.4,25a30.58,30.58,0,0,0,2,11,35.16,35.16,0,0,0,5.66,9.74q7,8.56,22.13,11.4,12.32,2.09,19.72,10.15a27.4,27.4,0,0,1,6.9,18.47A27.39,27.39,0,0,1,528.24,108a32.58,32.58,0,0,1-7.32,9.19,27.89,27.89,0,0,1-18.55,6.91,29.94,29.94,0,0,1-13.32-3.12,31.9,31.9,0,0,1-9.07-7.2q-1.41-1.74-2.49-3.33a5.18,5.18,0,0,0-4.41-2.33,4.84,4.84,0,0,0-3.62,1.5,5.06,5.06,0,0,0-1.46,3.66,5,5,0,0,0,1.09,3.16,40.54,40.54,0,0,0,3.07,4q12.73,13.89,30.29,13.89a38,38,0,0,0,25.13-9.4,41.45,41.45,0,0,0,9.94-12.11q3.71-6.86,3.87-18.34A36.55,36.55,0,0,0,539,81.37,42.59,42.59,0,0,0,532.15,69.64ZM599.38,41.1q-17.48,0-32.78,14.81V6.16a5,5,0,0,0-1.5-3.66,5.22,5.22,0,0,0-7.32,0,5,5,0,0,0-1.5,3.66v123a5.16,5.16,0,1,0,10.32,0V84.29a31.32,31.32,0,0,1,9.57-23.13,32.43,32.43,0,0,1,46.34,0,31,31,0,0,1,9.65,23.13v44.84a5.12,5.12,0,0,0,5.16,5.16,5.1,5.1,0,0,0,3.7-1.5,4.87,4.87,0,0,0,1.54-3.66V84.29a41.46,41.46,0,0,0-12.73-30.54A41.16,41.16,0,0,0,599.38,41.1Zm242.7,13.65A44.87,44.87,0,0,0,809.14,41.1a45.52,45.52,0,0,0-21,4.88l-4.31-7.46,4.71-8.15h11.9a2.5,2.5,0,0,0,2.5-2.5V25.75a2.49,2.49,0,0,0-2.5-2.5H768.47a2.49,2.49,0,0,0-2.5,2.5v2.12a2.5,2.5,0,0,0,2.5,2.5H782l-2.45,4.25H734.87l8-15.62h5a2.5,2.5,0,0,0,2.5-2.5V14.4a2.5,2.5,0,0,0-2.5-2.5H713.09a2.5,2.5,0,0,0-2.5,2.5v2.1a2.5,2.5,0,0,0,2.5,2.5h23.36L722.9,45.59a45.78,45.78,0,0,0-20.26-4.49,44.88,44.88,0,0,0-32.95,13.65A44.89,44.89,0,0,0,656,87.7a44.89,44.89,0,0,0,13.65,33,46.61,46.61,0,0,0,65.89,0A44.89,44.89,0,0,0,749.23,87.7a44.89,44.89,0,0,0-13.65-32.95,49.07,49.07,0,0,0-7.74-6.34l4.13-8.1h46.3l5,8.57a49.74,49.74,0,0,0-7,5.87,44.89,44.89,0,0,0-13.65,33v81.37a5.16,5.16,0,1,0,10.32,0V117.4l3.33,3.25a46.61,46.61,0,0,0,65.89,0A44.89,44.89,0,0,0,855.73,87.7,44.89,44.89,0,0,0,842.08,54.75ZM728.26,62.07A34.89,34.89,0,0,1,738.83,87.7a36.24,36.24,0,0,1-72.47,0,36.36,36.36,0,0,1,36.28-36.28,35.43,35.43,0,0,1,15.55,3.41L704.58,81.55a7.74,7.74,0,0,0-1.08-.09,7.1,7.1,0,1,0,5.89,3.15L723.1,57.72A39.27,39.27,0,0,1,728.26,62.07Zm106.5,51.25a36.28,36.28,0,0,1-61.9-25.62,34.93,34.93,0,0,1,10.65-25.63,38.84,38.84,0,0,1,4.92-4.17L804,84.83a7.08,7.08,0,1,0,6-3.37,7.23,7.23,0,0,0-1.33.13L793.3,55a35.41,35.41,0,0,1,15.84-3.55A36.22,36.22,0,0,1,845.33,87.7,34.86,34.86,0,0,1,834.76,113.32Z"/><path class="cls-2" d="M718,35.83a10.38,10.38,0,0,1-15.81-7.32,11,11,0,0,1,8.35-12.89,10.34,10.34,0,0,1,2.59-.18"/></g><g id="Cycle"><path class="cls-3" d="M63.66,25.44A50,50,0,0,1,100,40.77l8.69-7.83a60.66,60.66,0,1,0,0,82.13L100,106.89a49.35,49.35,0,0,1-36.29,15.33c-26.41,0-47.37-20.62-47.37-48.39C16.29,46.23,37.25,25.44,63.66,25.44ZM201.17,87.63c0,21.64-11.58,33.74-29.31,33.74-16,0-26.41-8.86-26.41-29.14v-44H133V92.74c0,25.56,13.81,40.56,37.15,40.56,11.08,0,24.54-4.94,30.84-18.23v10.05c0,18.91-10.05,29.65-28.79,29.65-11.76,0-21-3.75-29.48-9.55l-7.16,7.84A56.83,56.83,0,0,0,172.21,166c26.75-.17,41.4-17.55,41.4-43.28V48.27H201.17ZM282.79,59c10.06,0,18.92,4.09,26.07,11.92l7.5-8a43.62,43.62,0,1,0,0,55.88l-7.5-8q-10.73,11.75-26.07,11.75c-17,0-31.18-13.29-31.18-31.69S265.76,59,282.79,59ZM343,133.47h12.43V14.19H343ZM463.24,72c-6.13-15-19.59-24.88-38.33-24.88-26.07,0-43.28,19.59-43.28,43.79,0,25.73,18.23,43.45,44.64,43.62,14.65,0,26.75-5.62,36.12-13l-6.64-7.5a51.26,51.26,0,0,1-29.48,9.2c-18.57-.17-32-11.07-32-29.47h70.55C466.48,88.31,466,78.6,463.24,72Zm-9.71,13.46H394.75c.85-14.66,12.95-26.93,30.16-26.93,12.95,0,22.49,7,26.75,17.21A24.7,24.7,0,0,1,453.53,85.42Z"/></g></svg>